<svg xmlns="http://www.w3.org/2000/svg" viewBox="0 0 191.66 127.21"><defs><style>.cls-1,.cls-6{fill:#101521;}.cls-1,.cls-2,.cls-3,.cls-4,.cls-5{stroke:#101521;stroke-miterlimit:10;}.cls-2{fill:#8cff69;}.cls-3{fill:none;}.cls-3,.cls-4,.cls-5{stroke-linecap:round;}.cls-4{fill:#69f3ff;}.cls-5{fill:#fff;}</style></defs><g id="Capa_2" data-name="Capa 2"><g id="OBJECTS"><path class="cls-1" d="M191.16,82c0,24.67-42.68,44.67-95.32,44.67S.5,106.71.5,82c0-.47,0-.93.05-1.39A24.15,24.15,0,0,1,4.79,68.76C16.86,54,53.06,43.34,95.84,43.34s79,10.7,91,25.42a24.23,24.23,0,0,1,4.23,11.89C191.15,81.11,191.16,81.57,191.16,82Z"/><path class="cls-2" d="M191.16,79.52a10.56,10.56,0,0,1,0,1.13c-1.57,19.46-43.63,35.05-95.27,35.05S2.12,100.11.55,80.65c0-.37-.05-.75-.05-1.13A16.91,16.91,0,0,1,4.79,68.76C16.86,54,53.06,43.34,95.84,43.34s79,10.7,91,25.42A17,17,0,0,1,191.16,79.52Z"/><ellipse class="cls-2" cx="96.27" cy="74.27" rx="68.41" ry="21.73"/><ellipse class="cls-1" cx="97.65" cy="80.4" rx="48.93" ry="15.54"/><path class="cls-3" d="M27.85,74.27S25.73.5,96.27.5c45.73,0,68.41,33.93,68.41,73.77"/><rect class="cls-4" x="97.31" y="74.27" width="7.74" height="21.67"/><path class="cls-4" d="M117.4,33.6v-6c2.95-.93,5-3.12,5-5.66,0-3.4-3.68-6.15-8.22-6.15S106,18.51,106,21.91c0,2.78,2.46,5.12,5.84,5.89v4.61a75.78,75.78,0,0,0-12.38-1,73.07,73.07,0,0,0-17,2V28.44c2.8-1,4.74-3.11,4.74-5.57,0-3.4-3.68-6.15-8.22-6.15s-8.22,2.75-8.22,6.15c0,2.85,2.59,5.24,6.1,5.94V35c-12,4.15-20,11.5-20,19.88,0,13,19.05,23.45,42.56,23.45S142,67.81,142,54.86C142,45.44,131.93,37.33,117.4,33.6Z"/><path class="cls-5" d="M83.08,23c0,1.42-2,.25-4.3.25s-4,1.17-4-.25,1.87-2.57,4.18-2.57S83.08,21.53,83.08,23Z"/><path class="cls-5" d="M118.36,23c0,1.42-2,.25-4.3.25s-4,1.17-4-.25,1.87-2.57,4.17-2.57S118.36,21.53,118.36,23Z"/><path class="cls-6" d="M80.74,22.72A.7.7,0,1,1,80,22,.7.7,0,0,1,80.74,22.72Z"/><path class="cls-6" d="M116.65,22.72a.7.7,0,1,1-.7-.7A.7.7,0,0,1,116.65,22.72Z"/><path class="cls-6" d="M124.34,47c0,6.08-3.43,21.93-22.29,21.93S78.13,53,78.13,47s10.34-.21,23.1-.21S124.34,40.88,124.34,47Z"/><path class="cls-5" d="M87.21,45.42s-1.86,3.73,0,4.27S89.74,46,89.74,46Z"/><path class="cls-5" d="M88.5,64.56s3.18-2.71,1.67-3.92-3.79,2.44-3.79,2.44Z"/><path class="cls-5" d="M98.84,68.16s1.48-3.9-.43-4.24-2.14,4-2.14,4Z"/><path class="cls-5" d="M110.73,67.06s0-4.17-1.93-3.8-.57,4.47-.57,4.47Z"/><path class="cls-5" d="M120.25,59.29s-2.6-3.26-3.87-1.79,2.32,3.86,2.32,3.86Z"/><path class="cls-5" d="M93.7,46.72s-1.51,3.89.39,4.25S96.27,47,96.27,47Z"/><path class="cls-5" d="M101.48,47.37s-.85,4.08,1.08,4.12,1.5-4.26,1.5-4.26Z"/><path class="cls-5" d="M110.65,46.33s-.46,4.14,1.48,4S113.21,46,113.21,46Z"/></g></g></svg>