<svg xmlns="http://www.w3.org/2000/svg" viewBox="0 0 125.95 100.17"><defs><style>.cls-1,.cls-4{fill:#8cff69;}.cls-1,.cls-2,.cls-4,.cls-5{stroke:#101521;stroke-miterlimit:10;}.cls-2{fill:#fff;}.cls-3{fill:#101521;}.cls-4,.cls-5{stroke-linecap:round;}.cls-5{fill:none;}</style></defs><g id="Capa_2" data-name="Capa 2"><g id="OBJECTS"><path class="cls-1" d="M125.16,99.67S94.06,34.58,91.59,5.81C90.89-2.41,81,19.14,81,19.14l-44.12.55S30.88,5.62,30.59,1C30.1-6.58,1.06,69.88.51,99.67Z"/><path class="cls-2" d="M83.85,42.08c.85,1.84-2.93,5.41-8.46,8s-10.7,3.15-11.55,1.31,2.93-5.41,8.46-8S83,40.24,83.85,42.08Z"/><path class="cls-2" d="M27.52,41.15c-.86,1.84,2.93,5.41,8.46,8s10.7,3.15,11.55,1.31-2.94-5.4-8.46-8c-.66-.3-1.3-.58-1.94-.82C32.38,39.79,28.27,39.53,27.52,41.15Z"/><path class="cls-3" d="M38.69,46.9l-1.56-5.26,4.29,2L39.62,47A.51.51,0,0,1,38.69,46.9Z"/><path class="cls-3" d="M72.3,43.4a16.16,16.16,0,0,1,2.23,2.85.5.5,0,0,0,.91-.22L76,42Z"/><line class="cls-4" x1="26.7" y1="36.1" x2="35.57" y2="36.1"/><line class="cls-4" x1="78.16" y1="36.86" x2="87.03" y2="36.86"/><path class="cls-4" d="M85.92,20s1.1-2.82,1.73-4.37a.34.34,0,0,1,.65,0L89.63,20"/><path class="cls-4" d="M30.15,20.32s-.87-4.94-1.6-5.16-2.47,5.16-2.47,5.16"/><path class="cls-4" d="M85.92,73.61s2.19-3.2,4.23-2.06c3.7,2.06,1.06,28.12,1.06,28.12"/><path class="cls-4" d="M85.92,73.61s2.44-12.78-.93-13S80.12,72.1,80.12,72.1"/><path class="cls-4" d="M73.84,99.67s0-22.61,2.15-27.57c1.33-3.07,3.29-2.36,4.13,0"/><path class="cls-3" d="M50.3,56.31s2.47,4.17,4.41,3.9,5.09-4,4.39-4.42S49.13,55.19,50.3,56.31Z"/><path class="cls-5" d="M5,51.51c.69.1,8.48-2.17,9.63,0s6.88,4.87,8,4.43,5.05-2.6,6.88-2.66,7.64,4.59,7.64,4.59"/><path class="cls-5" d="M21.07,62.56s5.76-.93,6.29-1.9,3.41-1.1,3.95-.85,6.83,2.75,6.83,2.75"/><path class="cls-5" d="M73,57.87s10.5-3.73,11.82-3.65,7.13,3.93,8.06,1.72,4.13-6.1,6.2-4.43a3.4,3.4,0,0,0,5.12-.95c.69-1.33,8.57-8.08,15.33-3.3"/><path class="cls-5" d="M70.26,61.84s6,.8,6.72.72"/><path class="cls-2" d="M45,61.05a.63.63,0,0,0-.56.73c.22,1.49,1,4.75,2.17,4.2s1.35-3.19,1.43-4.54a.65.65,0,0,0-.73-.68Z"/><path class="cls-2" d="M64.7,61.05a.64.64,0,0,1,.56.73c-.22,1.49-1,4.75-2.17,4.2s-1.36-3.19-1.43-4.54a.65.65,0,0,1,.73-.68Z"/><path class="cls-3" d="M94,71.3c-3-4-5.88.19-5.66-1.25,1-6.27-1.79-9-1.79-9,.76,3.76-.59,12.58-.59,12.58s2.83-5.33,4.93-1S89,99.67,89,99.67h6.32S97,75.27,94,71.3Z"/></g></g></svg>