<svg xmlns="http://www.w3.org/2000/svg" viewBox="0 0 103.85 129"><defs><style>.cls-1{fill:#101521;}.cls-2{fill:#8cff69;}.cls-2,.cls-3{stroke:#101521;stroke-miterlimit:10;}.cls-3{fill:none;stroke-linecap:round;}</style></defs><g id="Capa_2" data-name="Capa 2"><g id="OBJECTS"><path class="cls-1" d="M103.35,57.4c0,9.59-.69,28.12-11.65,31.77C68.91,96.77,80.34,110,70.38,113.54c-9,3.2-12.2-3.11-18.45-4.71s-2,10.53-12.14,9.32C20.23,115.83,30.32,129,20.47,129c-6.74,0-9.18-12.6-6-25C18.09,89.54.5,84.38.5,57.4a51.43,51.43,0,0,1,102.85,0Z"/><path class="cls-2" d="M103.35,51.93c0,9.58-.69,28.11-11.65,31.77-22.79,7.59-11.36,20.82-21.32,24.37-9,3.2-12.2-3.11-18.45-4.72s-2,10.53-12.14,9.32c-19.56-2.32-9.47,10.85-19.32,10.85-6.74,0-9.18-12.59-6-25C18.09,84.06.5,78.91.5,51.93a51.43,51.43,0,1,1,102.85,0Z"/><ellipse class="cls-1" cx="34.05" cy="47.57" rx="6.98" ry="15.17"/><ellipse class="cls-1" cx="67.61" cy="47.57" rx="6.98" ry="15.17"/><path class="cls-3" d="M21.5,69.74s2.54,7.48,12,8.11S47.75,74.31,51.93,79s7.21,9.12,10,2.66,2.66-7,13.44-9.64S85,62,85,62"/></g></g></svg>